<svg width="26" height="18" viewBox="0 0 26 18" fill="none" xmlns="http://www.w3.org/2000/svg">
<path d="M3.30311 4.10685L9.3196 4.88032C9.52957 5.41346 10.5875 8.03773 10.7865 8.50733C10.7865 8.50733 10.7865 8.50733 10.7837 8.50733C9.0406 9.3692 7.29753 10.2283 5.55446 11.0902C6.15943 10.9797 6.77268 10.9244 7.38869 10.9244C8.19531 10.9244 8.98535 11.0211 9.73948 11.2117C11.2616 11.5984 12.6372 12.2172 13.9659 12.8167C15.151 13.3498 16.2725 13.8553 17.3913 14.1454C17.5488 14.1868 17.7007 14.2227 17.8526 14.2531C16.5267 11.5377 12.9604 4.22011 12.256 2.60964C11.9245 1.84999 11.4687 1.56822 10.8224 1.48535L3.75617 0.576526C2.78105 0.452219 1.8888 1.14005 1.76173 2.11517C1.64015 3.0903 2.32799 3.98255 3.30311 4.10685Z" fill="#222B3A"/>
<path d="M0.460613 16.7973C0.656742 16.9382 0.880496 17.0045 1.10425 17.0045C1.15397 17.0045 1.20093 17.0017 1.24789 16.9934C1.54071 16.9548 1.81695 16.8001 2.00203 16.5432C2.71748 15.5459 3.8252 14.7614 5.11524 14.3305C5.85556 14.0846 6.62903 13.9603 7.38869 13.9603C10.1428 13.9603 12.5046 15.6067 14.9908 16.5542C16.3222 17.0625 17.7117 17.4382 19.2227 17.4382C19.8581 17.4382 20.5155 17.3719 21.1978 17.22C22.8028 16.8664 24.1785 16.104 25.1729 15.0349C25.4105 14.778 25.6259 14.5073 25.8166 14.2172C26.1536 13.7089 26.0127 13.0239 25.5044 12.6868C25.3166 12.5625 25.1066 12.5045 24.8967 12.5045C24.5376 12.5045 24.1868 12.6786 23.974 12.999C23.8884 13.1288 23.7945 13.2531 23.6923 13.3747C23.0017 14.1979 21.9658 14.789 20.7227 15.0625C19.5763 15.3139 18.3111 15.2393 17.1814 14.9465C15.9935 14.6371 14.8443 14.1206 13.6234 13.5708C12.325 12.9879 10.9853 12.383 9.5323 12.0129C8.8417 11.8361 8.11796 11.7504 7.38592 11.7504C6.3887 11.7504 5.3749 11.9134 4.41083 12.2338C3.5683 12.5156 2.78654 12.9078 2.0849 13.4023C1.34458 13.9244 0.71199 14.546 0.20371 15.2531C0.170562 15.3001 0.142938 15.3471 0.118076 15.3968C-0.122252 15.8747 0.0103432 16.4741 0.460613 16.7973Z" fill="#222B3A"/>
<path d="M20.4658 11.6702C22.6185 11.6702 24.3636 9.92517 24.3636 7.7725C24.3636 5.61984 22.6185 3.87476 20.4658 3.87476C18.3132 3.87476 16.5681 5.61984 16.5681 7.7725C16.5681 9.92517 18.3132 11.6702 20.4658 11.6702Z" fill="#222B3A"/>
</svg>
